<?xml version="1.0" encoding="utf-8"?>
<!-- Generator: Adobe Illustrator 21.1.0, SVG Export Plug-In . SVG Version: 6.00 Build 0)  -->
<svg version="1.1" id="Layer_1" xmlns="http://www.w3.org/2000/svg" xmlns:xlink="http://www.w3.org/1999/xlink" x="0px" y="0px"
	 viewBox="0 0 421 100" style="enable-background:new 0 0 421 100;" xml:space="preserve">
<style type="text/css">
	.st0{fill:#333333;}
	.st1{fill:#A4CA67;}
</style>
<path class="st0" d="M183.8,22.8l4.3,9l4.1-9h2.2l-5.4,11.4c-0.2,0.5-0.5,0.9-0.8,1.4c-0.3,0.4-0.6,0.8-0.9,1.1
	c-0.3,0.3-0.7,0.6-1.2,0.7c-1,0.3-2,0.3-3,0c-0.3-0.1-0.6-0.3-0.9-0.4l1-1.6c0.2,0.1,0.4,0.2,0.6,0.3c0.3,0.1,0.6,0.2,0.9,0.2
	c0.4,0,0.8-0.2,1.2-0.5c0.4-0.4,0.7-0.9,1-1.4l-5.5-11.3H183.8z"/>
<path class="st0" d="M198.3,31.5c0.5,0,0.9,0,1.4,0.1l3.2-4h2.1l-3.6,4.5c0.5,0.2,1,0.5,1.4,0.8c0.4,0.3,0.8,0.7,1.1,1.1
	c0.3,0.5,0.6,1,0.8,1.5c0.2,0.6,0.4,1.2,0.6,1.9h-2.1c-0.1-0.7-0.4-1.4-0.7-2c-0.2-0.5-0.6-0.9-1-1.3c-0.4-0.3-0.9-0.6-1.4-0.7
	c-0.6-0.2-1.2-0.2-1.8-0.3v4.3h-1.9v-9.8h1.9L198.3,31.5z"/>
<path class="st0" d="M210.1,42.3h-1.9V27.6h1.9v1.6h0.1c0.4-0.6,0.9-1,1.5-1.3c0.6-0.3,1.3-0.5,2-0.5c0.7,0,1.4,0.1,2,0.4
	c0.6,0.3,1.1,0.6,1.6,1.1c0.4,0.5,0.8,1,1,1.6c0.5,1.3,0.5,2.7,0,4c-0.2,0.6-0.6,1.2-1,1.6c-0.4,0.5-1,0.9-1.6,1.1
	c-0.6,0.3-1.3,0.4-2,0.4c-0.7,0-1.3-0.2-1.9-0.5c-0.6-0.3-1.1-0.7-1.5-1.3h-0.1L210.1,42.3z M216.6,32.5c0-0.5-0.1-0.9-0.2-1.4
	c-0.3-0.8-0.9-1.5-1.7-1.9c-0.9-0.4-1.9-0.4-2.8,0c-0.4,0.2-0.8,0.4-1.1,0.8c-0.3,0.3-0.5,0.7-0.7,1.1c-0.3,0.9-0.3,1.9,0,2.8
	c0.2,0.4,0.4,0.8,0.7,1.1c0.3,0.3,0.7,0.6,1.1,0.8c0.9,0.4,1.9,0.4,2.8,0c0.8-0.4,1.4-1.1,1.7-1.9C216.6,33.4,216.6,33,216.6,32.5z"
	/>
<path class="st0" d="M227.6,31.1c0-0.7-0.2-1.3-0.6-1.7c-0.5-0.4-1.1-0.6-1.8-0.6c-0.5,0-1.1,0.1-1.6,0.3c-0.5,0.2-0.9,0.5-1.2,0.8
	l-1-1.2c0.5-0.5,1.1-0.8,1.7-1.1c0.7-0.3,1.5-0.4,2.3-0.4c0.5,0,1.1,0.1,1.6,0.2c0.5,0.1,0.9,0.4,1.2,0.7c0.4,0.3,0.6,0.7,0.8,1.1
	c0.2,0.5,0.3,1.1,0.3,1.6c0,0.2,0,0.4,0,0.6v3.7c0,0.4,0,0.7,0,1.1c0,0.4,0.1,0.7,0.1,1h-1.7c0-0.2-0.1-0.5-0.1-0.7
	c0-0.2,0-0.5,0-0.7h0c-0.4,0.5-0.8,1-1.4,1.3c-0.6,0.3-1.3,0.4-1.9,0.4c-0.4,0-0.8-0.1-1.2-0.2c-0.4-0.1-0.8-0.3-1.1-0.5
	c-0.3-0.2-0.6-0.6-0.8-0.9c-0.2-0.4-0.3-0.9-0.3-1.4c0-0.6,0.2-1.3,0.6-1.8c0.4-0.5,0.9-0.8,1.5-1c0.7-0.2,1.4-0.4,2.2-0.4
	c0.8-0.1,1.6-0.1,2.5-0.1L227.6,31.1z M227.2,32.7c-0.5,0-1,0-1.6,0.1c-0.5,0-1,0.1-1.4,0.3c-0.4,0.1-0.8,0.3-1.1,0.6
	c-0.3,0.3-0.4,0.6-0.4,1c0,0.3,0.1,0.5,0.2,0.8c0.1,0.2,0.3,0.4,0.5,0.5c0.2,0.1,0.4,0.2,0.7,0.3c0.2,0.1,0.5,0.1,0.7,0.1
	c0.4,0,0.8-0.1,1.2-0.2c0.3-0.1,0.6-0.4,0.9-0.6c0.2-0.3,0.4-0.6,0.6-0.9c0.1-0.4,0.2-0.7,0.2-1.1v-0.6L227.2,32.7z"/>
<path class="st0" d="M230.7,24c0-0.3,0.1-0.6,0.3-0.8c0.5-0.5,1.3-0.5,1.8,0c0.2,0.2,0.3,0.5,0.3,0.8c0,0.3-0.1,0.6-0.3,0.8
	c-0.5,0.5-1.2,0.5-1.7,0.1c0,0,0,0,0,0C230.8,24.6,230.7,24.3,230.7,24z M234.9,37.4H233v-9.8h1.9L234.9,37.4z M234.8,24
	c0-0.3,0.1-0.6,0.3-0.8c0.2-0.2,0.5-0.4,0.9-0.4c0.3,0,0.7,0.1,0.9,0.4c0.2,0.2,0.4,0.5,0.3,0.8c0,0.3-0.1,0.6-0.3,0.8
	c-0.2,0.2-0.6,0.4-0.9,0.4c-0.3,0-0.6-0.1-0.9-0.3C234.9,24.6,234.8,24.3,234.8,24z"/>
<path class="st0" d="M240.4,37.4h-1.9v-9.8h1.9v3.9h5v-3.9h1.9v9.8h-1.9V33h-5V37.4z"/>
<path class="st0" d="M257.8,30.1c-0.2-0.4-0.6-0.6-1-0.8c-0.4-0.2-0.9-0.3-1.3-0.3c-0.5,0-1,0.1-1.4,0.3c-0.4,0.2-0.8,0.4-1,0.7
	c-0.3,0.3-0.5,0.7-0.7,1.1c-0.3,0.9-0.3,1.9,0,2.8c0.1,0.4,0.4,0.8,0.7,1.1c0.3,0.3,0.7,0.6,1,0.7c0.4,0.2,0.9,0.3,1.4,0.3
	c0.5,0,1-0.1,1.4-0.3c0.4-0.2,0.7-0.5,1-0.8l1.3,1.2c-0.4,0.5-1,0.9-1.6,1.2c-0.7,0.3-1.4,0.5-2.2,0.4c-0.7,0-1.5-0.1-2.2-0.4
	c-0.6-0.2-1.2-0.6-1.7-1.1c-0.5-0.5-0.8-1-1.1-1.6c-0.5-1.3-0.5-2.8,0-4.2c0.2-0.6,0.6-1.2,1.1-1.6c0.5-0.5,1-0.8,1.7-1.1
	c0.7-0.3,1.4-0.4,2.2-0.4c0.7,0,1.4,0.1,2,0.4c0.6,0.3,1.2,0.7,1.6,1.2L257.8,30.1z"/>
<path class="st0" d="M263.2,27.6v3.3h2.4c0.6,0,1.2,0.1,1.8,0.2c0.5,0.1,0.9,0.4,1.2,0.7c0.3,0.3,0.5,0.6,0.7,1
	c0.1,0.4,0.2,0.8,0.2,1.3c0,0.4-0.1,0.9-0.2,1.3c-0.2,0.4-0.4,0.8-0.7,1c-0.4,0.3-0.8,0.5-1.2,0.7c-0.5,0.2-1.1,0.3-1.7,0.3h-4.4
	v-9.8H263.2z M263.2,36h2c0.6,0,1.2-0.1,1.7-0.4c0.4-0.3,0.7-0.7,0.7-1.5c0-0.3-0.1-0.6-0.2-0.9c-0.1-0.2-0.3-0.4-0.5-0.6
	c-0.2-0.1-0.5-0.2-0.8-0.3c-0.3-0.1-0.6-0.1-1-0.1h-1.9L263.2,36z"/>
<path class="st0" d="M274.2,31.5c0.5,0,0.9,0,1.4,0.1l3.2-4h2.1l-3.6,4.5c0.5,0.2,1,0.5,1.4,0.8c0.4,0.3,0.8,0.7,1.1,1.1
	c0.3,0.5,0.6,1,0.8,1.5c0.2,0.6,0.4,1.2,0.6,1.9h-2.1c-0.1-0.7-0.4-1.4-0.7-2c-0.2-0.5-0.6-0.9-1-1.3c-0.4-0.3-0.9-0.6-1.4-0.7
	c-0.6-0.2-1.2-0.2-1.8-0.3v4.3h-1.9v-9.8h1.9L274.2,31.5z"/>
<path class="st0" d="M291.5,30.1l-5.6,7.4H284v-9.8h1.9v7.1l5.6-7.1h1.9v9.8h-1.9V30.1z"/>
<path class="st0" d="M304.4,30.1l-5.6,7.4h-1.9v-9.8h1.9v7.1l5.6-7.1h1.9v9.8h-1.9V30.1z M298.4,23.4c0.1,0.3,0.3,0.6,0.5,0.8
	c0.2,0.3,0.5,0.5,0.8,0.7c0.3,0.2,0.6,0.4,1,0.5c0.8,0.2,1.6,0.2,2.4,0c0.3-0.1,0.7-0.3,1-0.5c0.5-0.4,1-0.9,1.2-1.5l-1.1-0.6
	c-0.2,0.4-0.5,0.8-0.8,1.1c-0.9,0.6-2,0.6-2.8,0c-0.4-0.3-0.7-0.6-0.8-1.1L298.4,23.4z"/>
<path class="st0" d="M183,44.1h4.7c0.6,0,1.1,0.1,1.7,0.2c0.5,0.1,1.1,0.3,1.5,0.6c0.5,0.3,0.8,0.7,1.1,1.1c0.3,0.6,0.5,1.2,0.4,1.8
	c0,0.7-0.2,1.4-0.7,2c-0.5,0.6-1.1,1-1.8,1.1v0c0.4,0,0.9,0.2,1.3,0.4c0.4,0.2,0.7,0.4,1,0.7c0.3,0.3,0.5,0.7,0.7,1.1
	c0.2,0.4,0.3,0.9,0.2,1.4c0,1.2-0.5,2.3-1.5,3c-0.5,0.4-1.1,0.6-1.7,0.8c-0.7,0.2-1.5,0.3-2.2,0.3H183V44.1z M185,50.3h2.7
	c0.3,0,0.7,0,1-0.1c0.3-0.1,0.6-0.2,0.9-0.4c0.3-0.2,0.5-0.4,0.6-0.7c0.2-0.3,0.3-0.7,0.2-1.1c0-0.4-0.1-0.7-0.2-1
	c-0.2-0.3-0.4-0.5-0.7-0.7c-0.3-0.2-0.6-0.3-1-0.4c-0.4-0.1-0.8-0.1-1.3-0.1H185V50.3z M185,57h2.6c0.5,0,0.9,0,1.4-0.1
	c0.4-0.1,0.8-0.2,1.2-0.4c0.3-0.2,0.6-0.5,0.8-0.8c0.2-0.4,0.3-0.8,0.3-1.2c0-0.9-0.3-1.5-0.9-1.9c-0.6-0.4-1.4-0.6-2.5-0.6H185V57z
	"/>
<path class="st0" d="M198.6,45.3c0,0.3-0.1,0.7-0.4,0.9c-0.2,0.2-0.5,0.3-0.9,0.3c-0.3,0-0.6-0.1-0.9-0.3c-0.2-0.2-0.4-0.5-0.4-0.9
	c0-0.3,0.1-0.6,0.4-0.9c0.2-0.2,0.5-0.4,0.9-0.3c0.3,0,0.6,0.1,0.9,0.3C198.5,44.6,198.6,44.9,198.6,45.3z M198.3,58.7h-1.9v-9.8
	h1.9V58.7z"/>
<path class="st0" d="M208.6,58.7l-2.9-7.5l-3.1,7.5h-2l4.2-9.8h1.9l3.9,9.8L208.6,58.7z"/>
<path class="st0" d="M214.8,48.9v3.3h2.4c0.6,0,1.2,0.1,1.8,0.2c0.5,0.1,0.9,0.4,1.2,0.7c0.3,0.3,0.5,0.6,0.7,1
	c0.1,0.4,0.2,0.8,0.2,1.3c0,0.4-0.1,0.9-0.2,1.3c-0.2,0.4-0.4,0.8-0.7,1c-0.4,0.3-0.8,0.5-1.2,0.7c-0.5,0.2-1.1,0.3-1.7,0.3h-4.4
	v-9.8H214.8z M214.8,57.2h2c0.6,0,1.2-0.1,1.7-0.4c0.4-0.3,0.7-0.7,0.7-1.5c0-0.3-0.1-0.6-0.2-0.9c-0.1-0.2-0.3-0.4-0.5-0.6
	c-0.2-0.1-0.5-0.2-0.8-0.3c-0.3-0.1-0.6-0.1-1-0.1h-1.9L214.8,57.2z"/>
<path class="st0" d="M225.8,58.7h-1.9v-9.8h1.9v3.9h5v-3.9h1.9v9.8h-1.9v-4.4h-5V58.7z"/>
<path class="st0" d="M243.7,51.3l-5.6,7.4h-1.9v-9.8h1.9V56l5.6-7.1h1.9v9.8h-1.9V51.3z"/>
<path class="st0" d="M256.6,51.3l-5.6,7.4h-1.9v-9.8h1.9V56l5.6-7.1h1.9v9.8h-1.9V51.3z M250.6,44.7c0.1,0.3,0.3,0.6,0.5,0.8
	c0.2,0.3,0.5,0.5,0.7,0.7c0.3,0.2,0.6,0.4,1,0.5c0.8,0.2,1.6,0.2,2.4,0c0.3-0.1,0.7-0.3,1-0.5c0.5-0.4,1-0.9,1.2-1.5l-1.1-0.6
	c-0.2,0.4-0.5,0.8-0.8,1.1c-0.9,0.6-2,0.6-2.8,0c-0.4-0.3-0.7-0.6-0.8-1.1L250.6,44.7z"/>
<path class="st0" d="M183.8,65.3l4.3,9l4.1-9h2.2l-5.4,11.4c-0.2,0.5-0.5,0.9-0.8,1.4c-0.3,0.4-0.6,0.8-0.9,1.1
	c-0.3,0.3-0.7,0.6-1.2,0.7c-1,0.3-2,0.3-3,0c-0.3-0.1-0.6-0.3-0.9-0.4l1-1.6c0.2,0.1,0.4,0.2,0.6,0.3c0.3,0.1,0.6,0.2,0.9,0.2
	c0.4,0,0.8-0.2,1.2-0.5c0.4-0.4,0.7-0.9,1-1.4l-5.5-11.3H183.8z"/>
<path class="st0" d="M198.3,79.9h-1.9v-9.8h1.9V74h5v-3.9h1.9v9.8h-1.9v-4.4h-5V79.9z"/>
<path class="st0" d="M211,66.5c0,0.3-0.1,0.7-0.4,0.9c-0.2,0.2-0.5,0.3-0.9,0.3c-0.3,0-0.6-0.1-0.9-0.3c-0.2-0.2-0.4-0.5-0.4-0.9
	c0-0.3,0.1-0.6,0.4-0.9c0.2-0.2,0.5-0.4,0.9-0.3c0.3,0,0.6,0.1,0.9,0.3C210.9,65.9,211,66.2,211,66.5z M210.7,79.9h-1.9v-9.8h1.9
	L210.7,79.9z"/>
<path class="st0" d="M214.3,79.9v-9.8h4.6c1.3,0,2.2,0.2,2.8,0.7c0.6,0.4,1,1.2,0.9,1.9c0,0.3-0.1,0.6-0.2,0.9
	c-0.1,0.2-0.3,0.4-0.5,0.6c-0.2,0.2-0.4,0.3-0.7,0.4c-0.3,0.1-0.5,0.2-0.9,0.3c0.3,0,0.7,0.1,1,0.2c0.3,0.1,0.6,0.2,0.8,0.4
	c0.2,0.2,0.4,0.4,0.6,0.7c0.2,0.3,0.2,0.7,0.2,1c0,0.8-0.4,1.5-1,1.9c-0.7,0.5-1.7,0.7-2.9,0.7L214.3,79.9z M218.6,74.3
	c0.5,0,1-0.1,1.5-0.3c0.4-0.2,0.6-0.6,0.6-1.1c0-0.3-0.1-0.5-0.2-0.8c-0.2-0.2-0.4-0.3-0.6-0.4c-0.3-0.1-0.6-0.2-0.9-0.2
	c-0.3,0-0.7,0-1.1,0h-1.5v2.8L218.6,74.3z M216.2,78.5h1.7c0.4,0,0.9,0,1.2,0c0.3,0,0.7-0.1,1-0.2c0.3-0.1,0.5-0.2,0.7-0.4
	c0.3-0.5,0.3-1.2,0-1.7c-0.2-0.2-0.4-0.4-0.7-0.4c-0.3-0.1-0.7-0.2-1-0.2c-0.4,0-0.8,0-1.3,0h-1.6L216.2,78.5z"/>
<path class="st0" d="M235.1,74.8v0.3c0,0.1,0,0.2,0,0.4h-7.8c0,0.4,0.1,0.8,0.3,1.2c0.2,0.4,0.4,0.7,0.7,1c0.3,0.3,0.6,0.5,1,0.7
	c0.4,0.2,0.8,0.2,1.2,0.2c0.6,0,1.2-0.1,1.8-0.5c0.4-0.3,0.8-0.6,1.1-1.1l1.4,1c-0.5,0.7-1.1,1.2-1.9,1.6c-1.4,0.6-3,0.7-4.4,0.1
	c-0.6-0.2-1.2-0.6-1.6-1c-0.5-0.5-0.8-1-1.1-1.6c-0.3-0.7-0.4-1.4-0.4-2.1c0-0.7,0.1-1.4,0.4-2.1c0.2-0.6,0.6-1.2,1.1-1.6
	c0.5-0.5,1-0.8,1.6-1.1c0.6-0.3,1.3-0.4,2-0.4c0.7,0,1.4,0.1,2,0.4c0.6,0.2,1.1,0.6,1.5,1c0.4,0.5,0.7,1,0.9,1.6
	C235,73.5,235.1,74.2,235.1,74.8z M233.2,74.2c0-0.8-0.3-1.5-0.8-2c-0.5-0.5-1.2-0.8-2.1-0.8c-0.4,0-0.8,0.1-1.2,0.2
	c-0.7,0.3-1.3,0.8-1.6,1.5c-0.2,0.3-0.3,0.7-0.3,1.1L233.2,74.2z"/>
<path class="st0" d="M240,84.9h-1.9V70.1h1.9v1.6h0.1c0.4-0.6,0.9-1,1.5-1.3c0.6-0.3,1.3-0.5,2-0.5c0.7,0,1.4,0.1,2,0.4
	c0.6,0.3,1.1,0.6,1.6,1.1c0.4,0.5,0.8,1,1,1.6c0.5,1.3,0.5,2.7,0,4c-0.2,0.6-0.6,1.2-1,1.6c-0.4,0.5-1,0.9-1.6,1.1
	c-0.6,0.3-1.3,0.4-2,0.4c-0.7,0-1.3-0.2-1.9-0.5c-0.6-0.3-1.1-0.7-1.5-1.3H240L240,84.9z M246.5,75c0-0.5-0.1-0.9-0.2-1.4
	c-0.3-0.8-0.9-1.5-1.7-1.9c-0.9-0.4-1.9-0.4-2.8,0c-0.4,0.2-0.8,0.4-1.1,0.8c-0.3,0.3-0.5,0.7-0.7,1.1c-0.3,0.9-0.3,1.9,0,2.8
	c0.2,0.4,0.4,0.8,0.7,1.1c0.3,0.3,0.7,0.6,1.1,0.8c0.9,0.4,1.9,0.4,2.8,0c0.8-0.4,1.4-1.1,1.7-1.9C246.5,76,246.5,75.5,246.5,75
	L246.5,75z"/>
<path class="st0" d="M258.4,72.6c-0.2-0.4-0.6-0.6-1-0.8c-0.4-0.2-0.9-0.3-1.3-0.3c-0.5,0-1,0.1-1.4,0.3c-0.4,0.2-0.8,0.4-1,0.7
	c-0.3,0.3-0.5,0.7-0.7,1.1c-0.3,0.9-0.3,1.9,0,2.8c0.1,0.4,0.4,0.8,0.7,1.1c0.3,0.3,0.7,0.6,1,0.7c0.4,0.2,0.9,0.3,1.4,0.3
	c0.5,0,1-0.1,1.4-0.3c0.4-0.2,0.7-0.5,1-0.8l1.3,1.2c-0.4,0.5-1,0.9-1.6,1.2c-0.7,0.3-1.4,0.5-2.2,0.4c-0.7,0-1.5-0.1-2.2-0.4
	c-0.6-0.2-1.2-0.6-1.7-1.1c-0.5-0.5-0.8-1-1.1-1.6c-0.5-1.3-0.5-2.8,0-4.2c0.2-0.6,0.6-1.2,1.1-1.6c0.5-0.5,1-0.8,1.7-1.1
	c0.7-0.3,1.4-0.4,2.2-0.4c0.7,0,1.4,0.1,2,0.4c0.6,0.3,1.2,0.7,1.6,1.2L258.4,72.6z"/>
<path class="st0" d="M269.4,72.6l-5.6,7.4h-1.9v-9.8h1.9v7.1l5.6-7.1h1.9v9.8h-1.9V72.6z"/>
<path class="st0" d="M273.5,70.1h8.6v1.5h-3.4v8.3h-1.9v-8.3h-3.2V70.1z"/>
<path class="st0" d="M293.4,74.8v0.3c0,0.1,0,0.2,0,0.4h-7.8c0,0.4,0.1,0.8,0.3,1.2c0.2,0.4,0.4,0.7,0.7,1c0.3,0.3,0.6,0.5,1,0.7
	c0.4,0.2,0.8,0.2,1.2,0.2c0.6,0,1.2-0.1,1.8-0.5c0.4-0.3,0.8-0.6,1.1-1.1l1.4,1c-0.5,0.7-1.1,1.2-1.9,1.6c-1.4,0.6-3,0.7-4.4,0.1
	c-0.6-0.2-1.2-0.6-1.6-1c-0.5-0.5-0.8-1-1.1-1.6c-0.3-0.7-0.4-1.4-0.4-2.1c0-0.7,0.1-1.4,0.4-2.1c0.2-0.6,0.6-1.2,1.1-1.6
	c0.5-0.5,1-0.8,1.6-1.1c0.6-0.3,1.3-0.4,2-0.4c0.7,0,1.4,0.1,2,0.4c0.6,0.2,1.1,0.6,1.5,1c0.4,0.5,0.7,1,0.9,1.6
	C293.3,73.5,293.4,74.2,293.4,74.8z M291.6,74.2c0-0.8-0.3-1.5-0.8-2c-0.5-0.5-1.2-0.8-2.1-0.8c-0.4,0-0.8,0.1-1.2,0.2
	c-0.7,0.3-1.3,0.8-1.6,1.5c-0.2,0.3-0.3,0.7-0.3,1.1L291.6,74.2z"/>
<path class="st0" d="M294.9,70.1h8.6v1.5h-3.4v8.3h-1.9v-8.3h-3.3V70.1z"/>
<path class="st1" d="M106,67.5c0.1-1.8-0.5-3.6-1.6-5c-1.3-1.7-2.2-3.6-2.7-5.6c-0.1-0.3-0.3-0.4-0.6-0.4c-0.1,0-0.1,0-0.2,0.1l0,0
	c-0.1,0.1-0.2,0.2-0.2,0.4c0,1.6,0.5,17.8,0.6,18.9c0,0.7,1.1,1.3,1.3,1.1c0.6-0.7,1-1.4,1.5-2.2v0c0.9-1.2,1.4-2.6,1.6-4
	C105.8,69.7,105.9,68.6,106,67.5z"/>
<path class="st1" d="M169.4,50.1C169.4,23,146.5,1,118.2,1S67.1,23,67.1,50.1c0,19.5,10.3,38.3,27.5,46.1c0.2,0.1,0.5,0,0.6-0.2
	c0-0.1,0-0.1,0-0.2c-0.4-10.2-0.6-29.3-3.5-38.7l0,0c-0.2-1-7.3-32.2,18.8-40.9c7.5-2.5,15.6-2.4,23.1,0.3c3.5,1.3,7.2,3.2,10.3,6.1
	c0.8,0.8,0.8,2.1,0.1,2.9c-0.2,0.2-0.4,0.4-0.7,0.5c-3.4,1.4-7,5.5-11.2,11.5c-0.2,0.3,0,0.7,0.2,1c1.3,1.4,5.2,6.1,4.9,9.6
	c0,0.2,0.1,0.4,0.2,0.5c0.4,0.8,0.9,2.7-0.6,4.7c-0.5,0.7-0.5,2-0.5,3.6c0.2,5.5,2.6,10.7,0.8,10.4c-0.8-0.1-1.6-0.1-1.8,0.1
	c-0.3,0.4,0.1,1.1,0,2c0,0.2-0.4,0.2-0.5,0.4c-0.2,0.5,0.3,0.7,0.1,1.2c0,0.1-0.9,1-1,1.2c-0.2,0.3,0,1.4-0.1,1.9
	c-0.7,2.8-5.6,1.4-8.7,1.1c-1.1-0.1-2.1,0.7-2.3,1.9c0,0.1,0,0.2,0,0.3l0,3.4c0,0.7,0.2,1.1,0.5,1.2c4,2.1,9.1,11.6,12.2,16.6
	c0.3,0.4,0.8,0.6,1.2,0.4C154.9,91.4,169.4,70.5,169.4,50.1z"/>
</svg>
